<mxfile host="app.diagrams.net" modified="2023-07-31T02:51:15.232Z" agent="Mozilla/5.0 (Windows NT 10.0; Win64; x64) AppleWebKit/537.36 (KHTML, like Gecko) Chrome/112.0.0.0 Safari/537.36" etag="b7lqaORwPl0vLQNOmjNl" version="21.6.5" type="github">
  <diagram id="07fea595-8f29-1299-0266-81d95cde20df" name="Page-1">
    <mxGraphModel dx="-904" dy="-63" grid="0" gridSize="10" guides="1" tooltips="1" connect="1" arrows="1" fold="1" page="1" pageScale="1" pageWidth="1169" pageHeight="827" background="none" math="0" shadow="0">
      <root>
        <mxCell id="0" />
        <mxCell id="1" parent="0" />
        <mxCell id="727" value="" style="edgeStyle=none;html=1;fontColor=#000000;strokeWidth=3;strokeColor=#000000;" parent="1" edge="1">
          <mxGeometry width="100" height="100" relative="1" as="geometry">
            <mxPoint x="2437.5" y="1594.5" as="sourcePoint" />
            <mxPoint x="2440" y="1170" as="targetPoint" />
          </mxGeometry>
        </mxCell>
        <mxCell id="734" value="" style="edgeStyle=none;html=1;fontColor=#000000;strokeWidth=3;strokeColor=#000000;" parent="1" edge="1">
          <mxGeometry width="100" height="100" relative="1" as="geometry">
            <mxPoint x="2437.5" y="1594.5" as="sourcePoint" />
            <mxPoint x="3000" y="1600" as="targetPoint" />
          </mxGeometry>
        </mxCell>
        <mxCell id="735" value="Parameter x" style="text;spacingTop=-5;html=1;fontSize=18;fontStyle=0;points=[];strokeColor=none;" parent="1" vertex="1">
          <mxGeometry x="2970" y="1610" width="80" height="20" as="geometry" />
        </mxCell>
        <mxCell id="736" value="x1" style="text;spacingTop=-5;align=center;verticalAlign=middle;fontStyle=0;html=1;fontSize=18;points=[];strokeColor=none;" parent="1" vertex="1">
          <mxGeometry x="2497.5" y="1596.5" width="120" height="30" as="geometry" />
        </mxCell>
        <mxCell id="737" value="x" style="text;spacingTop=-5;align=center;verticalAlign=middle;fontStyle=0;html=1;fontSize=18;points=[];strokeColor=none;" parent="1" vertex="1">
          <mxGeometry x="2617.5" y="1594.5" width="120" height="30" as="geometry" />
        </mxCell>
        <mxCell id="738" value="x2" style="text;spacingTop=-5;align=center;verticalAlign=middle;fontStyle=0;html=1;fontSize=18;points=[];strokeColor=none;" parent="1" vertex="1">
          <mxGeometry x="2863" y="1596.5" width="120" height="30" as="geometry" />
        </mxCell>
        <mxCell id="745" value="Parameter y" style="text;spacingTop=-5;html=1;fontSize=18;fontStyle=0;points=[]" parent="1" vertex="1">
          <mxGeometry x="2397.5" y="1140" width="80" height="20" as="geometry" />
        </mxCell>
        <mxCell id="746" value="y1" style="text;spacingTop=-5;align=center;verticalAlign=middle;fontStyle=0;html=1;fontSize=18;points=[]" parent="1" vertex="1">
          <mxGeometry x="2405.5" y="1464.5000000000002" width="30" height="129.99999999999977" as="geometry" />
        </mxCell>
        <mxCell id="747" value="y" style="text;spacingTop=-5;align=center;verticalAlign=middle;fontStyle=0;html=1;fontSize=18;points=[]" parent="1" vertex="1">
          <mxGeometry x="2405.5" y="1380" width="30" height="129.99999999999977" as="geometry" />
        </mxCell>
        <mxCell id="748" value="y2" style="text;spacingTop=-5;align=center;verticalAlign=middle;fontStyle=0;html=1;fontSize=18;points=[]" parent="1" vertex="1">
          <mxGeometry x="2405.5" y="1220" width="30" height="129.99999999999977" as="geometry" />
        </mxCell>
        <mxCell id="752" value="Q12" style="text;spacingTop=-5;align=center;verticalAlign=middle;fontStyle=0;html=1;fontSize=18;points=[];strokeColor=none;" parent="1" vertex="1">
          <mxGeometry x="2530" y="1285" width="120" height="30" as="geometry" />
        </mxCell>
        <mxCell id="KzxYQT_6u3SlZjh-CfOC-754" value="" style="endArrow=none;dashed=1;html=1;dashPattern=1 3;strokeWidth=2;rounded=0;exitX=1.117;exitY=0.435;exitDx=0;exitDy=0;exitPerimeter=0;" edge="1" parent="1" source="KzxYQT_6u3SlZjh-CfOC-764">
          <mxGeometry width="50" height="50" relative="1" as="geometry">
            <mxPoint x="2497.5" y="1520" as="sourcePoint" />
            <mxPoint x="2960" y="1520" as="targetPoint" />
          </mxGeometry>
        </mxCell>
        <mxCell id="KzxYQT_6u3SlZjh-CfOC-755" value="" style="endArrow=none;dashed=1;html=1;dashPattern=1 3;strokeWidth=2;rounded=0;exitX=0.529;exitY=0.05;exitDx=0;exitDy=0;exitPerimeter=0;" edge="1" parent="1" source="736">
          <mxGeometry width="50" height="50" relative="1" as="geometry">
            <mxPoint x="2560" y="1470" as="sourcePoint" />
            <mxPoint x="2560" y="1200" as="targetPoint" />
          </mxGeometry>
        </mxCell>
        <mxCell id="KzxYQT_6u3SlZjh-CfOC-756" value="" style="endArrow=none;dashed=1;html=1;dashPattern=1 3;strokeWidth=2;rounded=0;exitX=0.529;exitY=0.05;exitDx=0;exitDy=0;exitPerimeter=0;" edge="1" parent="1" source="KzxYQT_6u3SlZjh-CfOC-769">
          <mxGeometry width="50" height="50" relative="1" as="geometry">
            <mxPoint x="2681" y="1593" as="sourcePoint" />
            <mxPoint x="2680" y="1200" as="targetPoint" />
          </mxGeometry>
        </mxCell>
        <mxCell id="KzxYQT_6u3SlZjh-CfOC-757" value="" style="endArrow=none;dashed=1;html=1;dashPattern=1 3;strokeWidth=2;rounded=0;exitX=0.529;exitY=0.05;exitDx=0;exitDy=0;exitPerimeter=0;" edge="1" parent="1" source="KzxYQT_6u3SlZjh-CfOC-761">
          <mxGeometry width="50" height="50" relative="1" as="geometry">
            <mxPoint x="2923" y="1594.5" as="sourcePoint" />
            <mxPoint x="2922" y="1201.5" as="targetPoint" />
          </mxGeometry>
        </mxCell>
        <mxCell id="KzxYQT_6u3SlZjh-CfOC-758" value="" style="endArrow=none;dashed=1;html=1;dashPattern=1 3;strokeWidth=2;rounded=0;exitX=1.117;exitY=0.435;exitDx=0;exitDy=0;exitPerimeter=0;" edge="1" parent="1">
          <mxGeometry width="50" height="50" relative="1" as="geometry">
            <mxPoint x="2440" y="1441" as="sourcePoint" />
            <mxPoint x="2961" y="1440" as="targetPoint" />
          </mxGeometry>
        </mxCell>
        <mxCell id="KzxYQT_6u3SlZjh-CfOC-759" value="" style="endArrow=none;dashed=1;html=1;dashPattern=1 3;strokeWidth=2;rounded=0;exitX=1.117;exitY=0.435;exitDx=0;exitDy=0;exitPerimeter=0;" edge="1" parent="1" source="KzxYQT_6u3SlZjh-CfOC-771">
          <mxGeometry width="50" height="50" relative="1" as="geometry">
            <mxPoint x="2435.5" y="1281" as="sourcePoint" />
            <mxPoint x="2956.5" y="1280" as="targetPoint" />
          </mxGeometry>
        </mxCell>
        <mxCell id="KzxYQT_6u3SlZjh-CfOC-762" value="" style="endArrow=none;dashed=1;html=1;dashPattern=1 3;strokeWidth=2;rounded=0;exitX=0.529;exitY=0.05;exitDx=0;exitDy=0;exitPerimeter=0;" edge="1" parent="1" target="KzxYQT_6u3SlZjh-CfOC-761">
          <mxGeometry width="50" height="50" relative="1" as="geometry">
            <mxPoint x="2923" y="1594.5" as="sourcePoint" />
            <mxPoint x="2922" y="1201.5" as="targetPoint" />
          </mxGeometry>
        </mxCell>
        <mxCell id="KzxYQT_6u3SlZjh-CfOC-761" value="" style="ellipse;whiteSpace=wrap;html=1;aspect=fixed;fillColor=#000000;" vertex="1" parent="1">
          <mxGeometry x="2917" y="1515" width="10" height="10" as="geometry" />
        </mxCell>
        <mxCell id="KzxYQT_6u3SlZjh-CfOC-763" value="" style="endArrow=none;dashed=1;html=1;dashPattern=1 3;strokeWidth=2;rounded=0;exitX=0.529;exitY=0.05;exitDx=0;exitDy=0;exitPerimeter=0;" edge="1" parent="1" target="KzxYQT_6u3SlZjh-CfOC-760">
          <mxGeometry width="50" height="50" relative="1" as="geometry">
            <mxPoint x="2681" y="1593" as="sourcePoint" />
            <mxPoint x="2680" y="1200" as="targetPoint" />
          </mxGeometry>
        </mxCell>
        <mxCell id="KzxYQT_6u3SlZjh-CfOC-760" value="" style="ellipse;whiteSpace=wrap;html=1;aspect=fixed;fillColor=#000000;" vertex="1" parent="1">
          <mxGeometry x="2674.5" y="1515" width="10" height="10" as="geometry" />
        </mxCell>
        <mxCell id="KzxYQT_6u3SlZjh-CfOC-765" value="" style="endArrow=none;dashed=1;html=1;dashPattern=1 3;strokeWidth=2;rounded=0;exitX=1.117;exitY=0.435;exitDx=0;exitDy=0;exitPerimeter=0;" edge="1" parent="1" source="746" target="KzxYQT_6u3SlZjh-CfOC-764">
          <mxGeometry width="50" height="50" relative="1" as="geometry">
            <mxPoint x="2439" y="1521" as="sourcePoint" />
            <mxPoint x="2960" y="1520" as="targetPoint" />
          </mxGeometry>
        </mxCell>
        <mxCell id="KzxYQT_6u3SlZjh-CfOC-764" value="" style="ellipse;whiteSpace=wrap;html=1;aspect=fixed;fillColor=#000000;" vertex="1" parent="1">
          <mxGeometry x="2552.5" y="1515" width="10" height="10" as="geometry" />
        </mxCell>
        <mxCell id="KzxYQT_6u3SlZjh-CfOC-767" value="" style="endArrow=none;dashed=1;html=1;dashPattern=1 3;strokeWidth=2;rounded=0;exitX=0.529;exitY=0.05;exitDx=0;exitDy=0;exitPerimeter=0;" edge="1" parent="1" source="KzxYQT_6u3SlZjh-CfOC-760" target="KzxYQT_6u3SlZjh-CfOC-766">
          <mxGeometry width="50" height="50" relative="1" as="geometry">
            <mxPoint x="2678" y="1516" as="sourcePoint" />
            <mxPoint x="2680" y="1200" as="targetPoint" />
          </mxGeometry>
        </mxCell>
        <mxCell id="KzxYQT_6u3SlZjh-CfOC-766" value="" style="ellipse;whiteSpace=wrap;html=1;aspect=fixed;fillColor=#000000;" vertex="1" parent="1">
          <mxGeometry x="2674.5" y="1436" width="10" height="10" as="geometry" />
        </mxCell>
        <mxCell id="KzxYQT_6u3SlZjh-CfOC-770" value="" style="endArrow=none;dashed=1;html=1;dashPattern=1 3;strokeWidth=2;rounded=0;exitX=0.529;exitY=0.05;exitDx=0;exitDy=0;exitPerimeter=0;" edge="1" parent="1" source="KzxYQT_6u3SlZjh-CfOC-766" target="KzxYQT_6u3SlZjh-CfOC-769">
          <mxGeometry width="50" height="50" relative="1" as="geometry">
            <mxPoint x="2680" y="1437" as="sourcePoint" />
            <mxPoint x="2680" y="1200" as="targetPoint" />
          </mxGeometry>
        </mxCell>
        <mxCell id="KzxYQT_6u3SlZjh-CfOC-769" value="" style="ellipse;whiteSpace=wrap;html=1;aspect=fixed;fillColor=#000000;" vertex="1" parent="1">
          <mxGeometry x="2674.5" y="1275" width="10" height="10" as="geometry" />
        </mxCell>
        <mxCell id="KzxYQT_6u3SlZjh-CfOC-772" value="" style="endArrow=none;dashed=1;html=1;dashPattern=1 3;strokeWidth=2;rounded=0;exitX=1.117;exitY=0.435;exitDx=0;exitDy=0;exitPerimeter=0;" edge="1" parent="1" source="KzxYQT_6u3SlZjh-CfOC-773" target="KzxYQT_6u3SlZjh-CfOC-771">
          <mxGeometry width="50" height="50" relative="1" as="geometry">
            <mxPoint x="2435.5" y="1281" as="sourcePoint" />
            <mxPoint x="2956.5" y="1280" as="targetPoint" />
          </mxGeometry>
        </mxCell>
        <mxCell id="KzxYQT_6u3SlZjh-CfOC-771" value="" style="ellipse;whiteSpace=wrap;html=1;aspect=fixed;fillColor=#000000;" vertex="1" parent="1">
          <mxGeometry x="2917" y="1275" width="10" height="10" as="geometry" />
        </mxCell>
        <mxCell id="KzxYQT_6u3SlZjh-CfOC-774" value="" style="endArrow=none;dashed=1;html=1;dashPattern=1 3;strokeWidth=2;rounded=0;exitX=1.117;exitY=0.435;exitDx=0;exitDy=0;exitPerimeter=0;" edge="1" parent="1" target="KzxYQT_6u3SlZjh-CfOC-773">
          <mxGeometry width="50" height="50" relative="1" as="geometry">
            <mxPoint x="2435.5" y="1281" as="sourcePoint" />
            <mxPoint x="2917" y="1280" as="targetPoint" />
          </mxGeometry>
        </mxCell>
        <mxCell id="KzxYQT_6u3SlZjh-CfOC-773" value="" style="ellipse;whiteSpace=wrap;html=1;aspect=fixed;fillColor=#000000;" vertex="1" parent="1">
          <mxGeometry x="2554.5" y="1275" width="10" height="10" as="geometry" />
        </mxCell>
        <mxCell id="KzxYQT_6u3SlZjh-CfOC-775" value="Q22" style="text;spacingTop=-5;align=center;verticalAlign=middle;fontStyle=0;html=1;fontSize=18;points=[];strokeColor=none;" vertex="1" parent="1">
          <mxGeometry x="2890" y="1285" width="120" height="30" as="geometry" />
        </mxCell>
        <mxCell id="KzxYQT_6u3SlZjh-CfOC-776" value="Q11" style="text;spacingTop=-5;align=center;verticalAlign=middle;fontStyle=0;html=1;fontSize=18;points=[];strokeColor=none;" vertex="1" parent="1">
          <mxGeometry x="2530" y="1525" width="120" height="30" as="geometry" />
        </mxCell>
        <mxCell id="KzxYQT_6u3SlZjh-CfOC-777" value="Q21" style="text;spacingTop=-5;align=center;verticalAlign=middle;fontStyle=0;html=1;fontSize=18;points=[];strokeColor=none;" vertex="1" parent="1">
          <mxGeometry x="2890" y="1525" width="120" height="30" as="geometry" />
        </mxCell>
        <mxCell id="KzxYQT_6u3SlZjh-CfOC-778" value="R1" style="text;spacingTop=-5;align=center;verticalAlign=middle;fontStyle=0;html=1;fontSize=18;points=[];strokeColor=none;" vertex="1" parent="1">
          <mxGeometry x="2650" y="1525" width="120" height="30" as="geometry" />
        </mxCell>
        <mxCell id="KzxYQT_6u3SlZjh-CfOC-779" value="R2" style="text;spacingTop=-5;align=center;verticalAlign=middle;fontStyle=0;html=1;fontSize=18;points=[];strokeColor=none;" vertex="1" parent="1">
          <mxGeometry x="2650" y="1285" width="120" height="30" as="geometry" />
        </mxCell>
        <mxCell id="KzxYQT_6u3SlZjh-CfOC-780" value="P" style="text;spacingTop=-5;align=center;verticalAlign=middle;fontStyle=0;html=1;fontSize=18;points=[];strokeColor=none;" vertex="1" parent="1">
          <mxGeometry x="2650" y="1446" width="120" height="30" as="geometry" />
        </mxCell>
      </root>
    </mxGraphModel>
  </diagram>
</mxfile>
